<?xml version="1.0" standalone="no"?>
<!DOCTYPE svg PUBLIC "-//W3C//DTD SVG 20010904//EN"
 "http://www.w3.org/TR/2001/REC-SVG-20010904/DTD/svg10.dtd">
<svg version="1.0" xmlns="http://www.w3.org/2000/svg"
 width="3264.000000pt" height="1835.000000pt" viewBox="0 0 3264.000000 1835.000000"
 preserveAspectRatio="xMidYMid meet">

<g transform="translate(0.000000,1835.000000) scale(0.100000,-0.100000)"
fill="#000000" stroke="none">
<path d="M26300 12864 c-204 -20 -479 -66 -620 -104 l-40 -11 0 -112 c0 -62
-4 -117 -8 -124 -6 -9 -110 -13 -422 -14 -636 -2 -1080 -19 -2025 -79 -224
-14 -205 -5 -205 -100 l0 -80 38 4 c20 3 78 8 127 11 50 3 158 10 240 15 791
51 1837 86 2395 78 l245 -3 -2 100 c-2 55 -5 111 -8 124 -6 23 -5 23 64 19 38
-2 72 -6 76 -9 3 -3 10 -57 16 -120 6 -63 13 -116 14 -117 2 -2 124 -10 272
-18 273 -14 604 -38 748 -55 126 -14 115 -23 110 86 l-4 95 32 0 c66 -1 321
-30 329 -38 5 -5 14 -53 19 -108 6 -54 15 -101 20 -105 6 -3 79 -23 162 -44
84 -20 183 -49 220 -63 63 -23 72 -30 127 -102 69 -90 230 -340 317 -490 409
-709 851 -1724 1163 -2670 371 -1124 605 -2126 720 -3070 115 -951 85 -1665
-92 -2209 -140 -432 -390 -738 -673 -824 -27 -8 -94 -31 -147 -50 -96 -34 -97
-34 -127 -16 -64 39 -184 166 -246 259 -39 59 -95 170 -150 295 -805 1835
-1420 3024 -2058 3980 -331 496 -550 759 -975 1173 -581 566 -787 835 -874
1148 -21 74 -22 99 -22 404 0 357 1 368 98 935 18 110 36 220 39 243 l5 44
-75 -6 c-41 -2 -77 -7 -79 -9 -3 -2 -9 -40 -14 -83 -5 -44 -30 -243 -55 -444
-25 -201 -59 -475 -76 -610 -33 -269 -46 -334 -86 -424 -137 -309 -405 -513
-776 -592 -90 -19 -248 -36 -690 -75 l-367 -33 2 -1731 3 -1730 35 3 c216 17
781 71 788 76 5 3 234 26 508 51 275 25 515 47 534 50 19 3 118 10 220 15 245
12 384 43 617 136 94 37 121 44 181 44 236 0 580 -150 804 -350 108 -97 184
-199 248 -335 83 -173 150 -317 150 -320 0 -2 30 -65 66 -141 36 -77 79 -166
94 -199 15 -33 60 -127 100 -210 39 -82 101 -213 138 -290 111 -235 435 -879
537 -1070 178 -333 310 -506 436 -571 80 -41 200 -46 289 -12 36 14 101 31
144 38 137 21 338 80 733 214 225 77 311 122 426 224 215 190 385 484 486 844
50 180 79 337 113 623 17 147 18 897 0 1090 -25 279 -68 657 -92 803 -5 34
-15 90 -20 125 -28 175 -86 486 -126 677 -64 302 -169 742 -186 774 -5 10 -47
152 -93 315 -46 163 -94 332 -108 376 -118 373 -161 504 -242 735 -258 732
-491 1289 -796 1900 -215 429 -393 737 -585 1010 -103 148 -119 162 -211 200
-93 38 -88 30 -98 174 l-8 98 -76 35 c-323 148 -749 282 -1035 324 -156 23
-445 24 -656 3z m808 -7736 c11 -18 90 -149 176 -291 437 -721 739 -1266 1086
-1962 104 -206 180 -348 195 -359 13 -11 55 -27 92 -36 l68 -17 -35 -18 c-54
-29 -135 -26 -192 7 -72 43 -161 161 -288 383 -90 157 -500 973 -675 1345 -82
173 -177 376 -213 450 -99 209 -242 518 -242 524 0 13 10 4 28 -26z"/>
<path d="M25492 11465 c-17 -191 -22 -284 -12 -254 10 35 33 327 28 359 -2 14
-9 -33 -16 -105z"/>
<path d="M25892 11468 c-15 -143 -24 -325 -13 -273 11 51 35 364 29 371 -3 2
-10 -42 -16 -98z"/>
<path d="M9335 11319 c-44 -4 -172 -15 -285 -24 -253 -19 -459 -37 -740 -65
-52 -5 -169 -17 -260 -25 -91 -8 -203 -20 -250 -25 -47 -5 -173 -19 -280 -30
-180 -19 -320 -35 -525 -60 -168 -21 -413 -51 -482 -60 -40 -6 -106 -14 -145
-19 -83 -11 -509 -73 -668 -97 -138 -21 -591 -97 -753 -127 -89 -17 -130 -21
-133 -13 -2 6 -13 58 -24 115 -11 58 -23 107 -25 109 -14 14 -410 13 -605 -2
-471 -36 -738 -108 -1107 -297 -244 -125 -607 -351 -621 -387 -3 -8 -1 -64 4
-125 l9 -110 -25 -15 c-130 -78 -129 -77 -206 -237 -221 -459 -460 -1226 -638
-2047 -67 -309 -147 -731 -166 -883 -7 -49 -27 -200 -46 -335 -47 -343 -80
-610 -103 -855 -12 -115 -23 -232 -26 -260 -65 -651 -72 -1737 -15 -2405 110
-1281 449 -2154 982 -2530 148 -105 279 -157 448 -179 41 -5 152 -21 245 -35
220 -32 472 -56 601 -56 55 0 125 -5 155 -10 106 -20 219 20 306 109 98 100
195 332 332 786 16 55 44 147 61 205 31 102 165 583 214 765 72 268 118 440
140 525 13 52 41 158 61 235 20 77 52 201 72 275 19 74 43 167 53 206 73 280
342 575 675 741 180 90 261 105 410 75 224 -45 408 -51 680 -22 50 5 158 14
240 20 149 10 404 32 585 50 224 22 459 44 875 81 61 5 155 14 210 19 55 5
174 16 265 24 91 8 221 20 289 26 68 6 146 15 174 21 27 5 69 9 92 9 l42 0 6
83 c4 45 7 817 7 1715 0 1333 -2 1632 -13 1632 -7 0 -134 -11 -283 -25 -372
-35 -1017 -94 -1144 -105 -58 -5 -278 -26 -490 -46 -508 -47 -655 -43 -870 28
-226 73 -424 233 -534 431 -35 62 -67 154 -170 477 -107 338 -275 865 -288
905 l-13 40 -61 -1 c-95 -1 -96 -2 -74 -71 10 -32 61 -175 113 -318 170 -467
182 -510 257 -940 46 -261 10 -455 -140 -755 -113 -227 -261 -461 -494 -780
-313 -431 -534 -830 -763 -1385 -29 -71 -58 -139 -63 -150 -12 -24 -129 -325
-160 -410 -133 -367 -246 -705 -370 -1105 -222 -717 -433 -1515 -665 -2520
-46 -197 -86 -314 -142 -414 -39 -69 -98 -148 -140 -188 l-28 -27 -135 20
c-190 28 -254 44 -339 84 -286 136 -538 451 -719 896 -278 688 -405 1719 -372
3024 26 1013 133 1943 349 3040 119 602 326 1356 511 1855 75 203 199 477 227
502 35 31 130 82 278 148 97 43 150 72 149 82 -1 7 -4 55 -8 106 l-7 91 36 15
c19 8 51 18 69 22 l34 6 7 -79 c11 -109 10 -108 28 -111 9 -2 109 26 224 62
257 80 823 236 858 236 4 0 4 17 1 38 -3 20 -8 69 -11 108 l-6 71 43 16 c95
35 235 78 275 84 l41 5 7 -110 c4 -60 10 -115 14 -120 7 -12 14 -11 416 66
953 183 2264 355 3670 482 350 31 457 41 680 58 l210 17 0 79 c0 45 -4 80 -10
81 -5 1 -46 -1 -90 -6z m-4650 -8162 c-21 -78 -52 -198 -70 -267 -18 -69 -54
-206 -80 -305 -26 -99 -62 -234 -80 -300 -18 -66 -49 -181 -69 -255 -20 -74
-41 -151 -46 -170 -13 -45 -69 -246 -80 -285 -21 -76 -118 -402 -173 -580 -85
-274 -166 -461 -235 -537 -63 -70 -147 -94 -217 -64 l-30 13 40 12 c92 30 135
74 150 156 10 55 159 562 266 905 55 179 191 589 236 715 89 251 170 473 278
760 65 171 122 323 128 340 6 16 12 24 15 17 2 -7 -13 -76 -33 -155z"/>
<path d="M19230 11161 l-865 -46 -7 -40 c-4 -22 -7 -120 -7 -218 l-1 -178 48
6 c26 3 443 26 927 51 484 25 890 47 902 50 27 5 30 26 37 257 l6 167 -88 -1
c-48 -1 -476 -22 -952 -48z"/>
<path d="M17445 11068 c-93 -5 -173 -13 -176 -16 -4 -4 -52 -122 -108 -262
-56 -140 -159 -401 -230 -579 -70 -178 -131 -319 -135 -313 -6 10 -191 484
-342 880 l-89 232 -120 -6 c-66 -4 -165 -9 -220 -13 l-100 -6 -6 -445 c-4
-245 -10 -788 -14 -1207 l-8 -763 69 1 c38 0 139 6 224 12 l155 12 0 60 c-1
141 -26 1237 -30 1308 -2 42 -1 77 3 77 4 0 23 -51 41 -112 74 -248 193 -623
199 -629 9 -8 455 20 463 29 4 4 64 182 133 396 70 213 129 386 131 384 2 -2
-2 -116 -10 -253 -18 -296 -40 -688 -56 -983 -7 -117 -9 -215 -6 -218 10 -11
427 18 435 30 3 6 18 548 32 1204 l25 1192 -45 -2 c-25 0 -121 -5 -215 -10z"/>
<path d="M14180 10896 l-955 -51 0 -1217 c1 -669 3 -1220 7 -1223 3 -3 99 0
214 7 l209 13 5 495 5 495 35 3 c92 10 1122 67 1126 63 2 -2 4 -225 4 -494 l0
-490 78 6 c42 4 134 9 204 13 69 4 131 10 136 13 6 4 12 468 17 1214 l7 1207
-68 -1 c-38 -1 -499 -25 -1024 -53z m651 -641 c-1 -181 -4 -331 -4 -332 -3 -2
-1079 -63 -1124 -63 l-43 0 0 330 c0 256 3 332 13 335 15 5 1092 63 1132 61
l30 -1 -4 -330z"/>
<path d="M11493 10756 c-535 -29 -975 -54 -977 -57 -7 -7 45 -2453 52 -2460 7
-7 1979 114 1985 122 7 7 -8 1417 -15 1424 -5 6 -991 -45 -1185 -61 l-72 -6 6
-231 c3 -128 7 -233 8 -235 1 -2 158 6 348 18 190 11 365 20 389 20 l45 0 6
-262 c4 -144 4 -264 2 -266 -5 -6 -893 -61 -982 -62 l-63 0 -1 123 c0 67 -6
421 -13 787 -7 366 -10 668 -7 671 3 3 323 22 711 43 388 20 729 39 758 42
l52 5 -2 217 -3 217 -35 2 c-19 0 -473 -22 -1007 -51z"/>
<path d="M19290 10174 c-498 -29 -917 -53 -931 -53 l-26 -1 -7 -211 c-4 -116
-5 -213 -3 -215 4 -4 1889 105 1893 109 1 1 5 98 9 215 7 204 7 212 -11 211
-11 -1 -426 -25 -924 -55z"/>
<path d="M5096 9856 c7 -61 36 -173 74 -284 41 -123 29 -40 -21 144 -47 171
-62 211 -53 140z"/>
<path d="M4711 9790 c-1 -26 79 -321 99 -364 16 -35 18 -37 13 -11 -3 17 -23
97 -45 179 -38 146 -66 226 -67 196z"/>
<path d="M19225 9192 c-495 -30 -904 -59 -910 -64 -6 -5 -11 -93 -14 -208 l-3
-200 38 0 c57 0 1838 112 1843 116 5 5 19 398 14 407 -5 9 73 13 -968 -51z"/>
<path d="M4236 8780 c-3 -14 -7 -92 -9 -173 l-4 -148 -36 -52 c-20 -29 -76
-99 -124 -156 -123 -146 -122 -144 -93 -139 28 4 165 154 238 262 l47 68 3
164 c2 95 -1 171 -7 181 -8 16 -10 15 -15 -7z"/>
<path d="M3370 8693 c0 -44 31 -232 49 -300 9 -32 29 -58 89 -114 104 -98 214
-178 254 -185 41 -8 39 -6 -98 104 -56 44 -125 102 -154 129 l-52 48 -35 170
c-35 173 -53 223 -53 148z"/>
<path d="M20905 8307 c-506 -33 -923 -63 -926 -66 -8 -8 -88 -2284 -80 -2293
5 -6 392 19 399 26 1 2 10 209 19 460 10 251 20 461 23 466 7 11 1066 88 1076
78 3 -4 -3 -213 -14 -465 -11 -252 -20 -458 -19 -459 2 -3 391 27 394 29 3 3
103 2168 103 2230 0 56 -1 57 -27 56 -16 -1 -442 -29 -948 -62z m560 -369 c-3
-46 -10 -184 -16 -308 -5 -123 -12 -227 -15 -230 -5 -5 -1076 -81 -1080 -77
-2 1 2 141 9 311 7 199 14 309 21 312 10 4 967 70 1049 73 l37 1 -5 -82z"/>
<path d="M4635 8350 c-22 -4 -70 -12 -107 -19 -37 -6 -79 -16 -94 -21 -71 -27
-310 -328 -282 -355 2 -3 43 44 91 103 47 59 111 131 140 160 60 59 44 54 306
103 82 15 117 25 105 30 -24 9 -106 9 -159 -1z"/>
<path d="M2945 8196 l-30 -12 34 -7 c18 -4 98 -7 176 -7 l142 0 59 -40 c32
-21 111 -84 176 -140 82 -70 118 -95 118 -82 0 32 -189 203 -295 267 l-59 35
-145 0 c-95 -1 -156 -5 -176 -14z"/>
<path d="M19065 8188 c-77 -5 -143 -13 -146 -16 -7 -7 -74 -2300 -68 -2306 10
-7 423 30 425 39 3 9 74 2188 74 2264 l0 31 -72 -1 c-40 -1 -136 -6 -213 -11z"/>
<path d="M18065 8123 c-115 -8 -211 -15 -212 -16 -2 -3 -33 -1348 -33 -1442 0
-98 3 -101 -121 105 -170 282 -670 1110 -745 1232 l-29 48 -50 -5 c-27 -3
-122 -10 -210 -15 -87 -6 -160 -12 -161 -13 -5 -6 -35 -2319 -30 -2324 6 -7
425 22 432 30 3 2 11 341 18 751 8 411 15 749 17 751 2 2 123 -193 269 -433
146 -240 302 -497 348 -572 45 -74 117 -192 158 -261 42 -69 84 -136 94 -149
l17 -23 196 15 c108 8 200 18 204 22 5 4 20 476 35 1049 30 1153 31 1268 21
1266 -5 -1 -102 -8 -218 -16z"/>
<path d="M14865 7914 c-522 -34 -962 -63 -977 -63 l-28 -1 0 -1181 0 -1181 48
6 c26 3 117 10 202 16 85 6 161 13 168 15 9 3 12 108 12 479 l0 475 43 5 c43
6 1047 76 1081 76 18 0 19 -14 14 -475 l-5 -475 26 0 c56 1 384 29 388 34 7 6
33 2318 27 2328 -3 5 -15 7 -27 7 -12 -1 -449 -30 -972 -65z m575 -609 c0
-244 -3 -317 -12 -320 -24 -9 -1123 -81 -1131 -75 -4 3 -6 148 -5 321 l3 314
530 36 c292 20 549 37 573 38 l42 1 0 -315z"/>
<path d="M12910 7788 c-69 -5 -130 -10 -135 -12 -6 -2 -201 -281 -434 -620
-233 -339 -427 -615 -432 -614 -7 3 -576 720 -794 1001 l-90 116 -65 -1 c-36
0 -137 -5 -225 -11 l-160 -12 3 -100 c1 -55 12 -588 23 -1185 12 -597 24
-1088 28 -1092 7 -8 466 24 476 33 3 4 -1 341 -8 750 -7 409 -12 746 -9 749 4
6 -23 39 345 -408 164 -199 301 -363 305 -366 4 -2 85 2 180 9 121 9 178 17
186 26 7 8 147 202 311 432 163 230 301 415 305 410 5 -4 10 -337 12 -740 2
-402 6 -735 10 -738 4 -4 101 0 216 9 116 9 219 16 231 16 l21 0 0 783 c0 430
-3 961 -7 1180 l-6 397 -81 -1 c-45 -1 -137 -6 -206 -11z"/>
<path d="M4167 7760 c11 -43 284 -274 336 -285 12 -2 86 -7 163 -10 126 -6
145 -5 175 11 l34 19 -179 7 c-213 9 -198 3 -394 167 -72 61 -134 111 -136
111 -2 0 -2 -9 1 -20z"/>
<path d="M3560 7643 c-41 -53 -105 -128 -142 -168 -65 -70 -71 -73 -130 -84
-164 -28 -298 -57 -298 -63 0 -19 61 -18 178 2 192 33 193 33 262 103 88 88
210 252 210 282 0 14 -1 25 -2 25 -2 -1 -37 -44 -78 -97z"/>
<path d="M4030 7552 c100 -77 273 -227 285 -246 8 -11 30 -99 49 -195 19 -95
37 -175 39 -178 27 -26 -18 318 -49 378 -32 63 -288 269 -333 269 -26 0 -26 0
9 -28z"/>
<path d="M3800 7552 c-39 -19 -156 -151 -228 -255 l-46 -68 -4 -158 c-4 -130
-2 -163 11 -187 l16 -29 1 60 c1 33 5 117 9 186 l6 126 60 79 c32 43 88 113
124 154 95 111 94 110 90 110 -2 0 -20 -8 -39 -18z"/>
</g>
</svg>
